<?xml version="1.0" encoding="UTF-8" standalone="no"?>
<!DOCTYPE svg PUBLIC "-//W3C//DTD SVG 1.1//EN" "http://www.w3.org/Graphics/SVG/1.1/DTD/svg11.dtd">
<svg width="100%" height="100%" viewBox="0 0 256 256" version="1.1" xmlns="http://www.w3.org/2000/svg" xmlns:xlink="http://www.w3.org/1999/xlink" xml:space="preserve" style="fill-rule:evenodd;clip-rule:evenodd;stroke-linejoin:round;stroke-miterlimit:1.41421;">
    <path d="M149.974,191.146C148.336,191.146 146.698,190.521 145.45,189.271L88.702,132.525C86.202,130.026 86.202,125.973 88.702,123.475L145.45,66.728C147.946,64.228 152.003,64.228 154.499,66.728C156.999,69.227 156.999,73.28 154.499,75.778L102.278,128L154.498,180.222C156.998,182.721 156.998,186.774 154.498,189.272C153.25,190.521 151.611,191.146 149.974,191.146ZM256,128C256,57.42 198.58,0 128,0C57.42,0 0,57.42 0,128C0,198.58 57.42,256 128,256C198.58,256 256,198.58 256,128ZM243.2,128C243.2,191.521 191.521,243.2 128,243.2C64.478,243.2 12.8,191.521 12.8,128C12.8,64.478 64.478,12.8 128,12.8C191.521,12.8 243.2,64.478 243.2,128Z" style="fill:white;fill-rule:nonzero;"/>
</svg>
